<svg height="779" width="2500" xmlns="http://www.w3.org/2000/svg" viewBox="0 0 308 96"><linearGradient id="a" x1="50%" x2="50%" y1="0%" y2="100%"><stop offset="0" stop-color="#0dca5b"/><stop offset="1" stop-color="#079b8d"/></linearGradient><g fill="none" fill-rule="evenodd"><circle cx="48" cy="48" fill="#fff" r="48"/><circle cx="48" cy="48" r="47.5" stroke="#ebebeb"/><circle cx="48" cy="48" fill="url(#a)" r="40"/><path d="M20 48l6-6.108L40.003 56 70 26l6 6-35.997 36.108z" fill="#fff"/><g fill-rule="nonzero"><path d="M258 69.284l5.47-13.776h15.797L271.77 34.61 281.146 11 308 82h-19.804l-4.589-12.716z" fill="#3b3b3b"/><path d="M241.405 82L270 11h-18.958l-19.56 45.882L217.571 11H203l-14.935 45.882-10.533-20.908L168 65.372 177.678 82h18.656l13.497-41.146L222.699 82h18.706z" fill="#304ffe"/><path d="M138.144 57.627h11.774c3.566 0 6.742-.395 9.527-1.186l3.045-9.314 8.51-26.03a20.815 20.815 0 0 0-2.22-2.894C164.41 13.4 158.016 11 149.6 11H120v71h18.144zm15.585-30.293c1.706 1.706 2.56 3.988 2.56 6.847 0 2.881-.751 5.166-2.252 6.855-1.645 1.876-4.675 2.815-9.089 2.815h-6.804V24.776h6.854c4.114 0 7.024.853 8.73 2.558z" fill="#3b3b3b"/></g></g></svg>